<?xml version="1.0" encoding="UTF-8"?>
<svg version="1.1"
  xmlns="http://www.w3.org/2000/svg" width="500" height="500">
  <path d="M0 0 C1.27248596 -0.00478363 2.54497192 -0.00956726 3.85601807 -0.01449585 C6.53592418 -0.01787652 9.21349886 -0.01140606 11.89306641 0.01220703 C15.90189564 0.04590377 19.9091158 0.01252379 23.91796875 -0.01953125 C52.85022189 -0.0582325 87.3243014 3.82508259 110.203125 23.6640625 C111.110625 24.5921875 112.018125 25.5203125 112.953125 26.4765625 C115.65280104 29.12138084 115.65280104 29.12138084 119.203125 29.6640625 C121.62494441 27.96183601 121.62494441 27.96183601 123.953125 25.5390625 C131.28763972 18.62213329 138.93073336 14.53764648 148.203125 10.6640625 C149.62238281 10.0453125 149.62238281 10.0453125 151.0703125 9.4140625 C171.86204863 1.11810793 194.40912086 -0.16525326 216.53295898 0.01220703 C219.88777154 0.03482883 223.23880364 0.02350409 226.5933094 -0.00500393 C259.99355189 -0.24591204 259.99355189 -0.24591204 273.203125 12.6640625 C273.77675781 13.21320312 274.35039062 13.76234375 274.94140625 14.328125 C286.5993756 27.4614205 283.76474551 49.19682854 283.68204653 65.46884453 C283.66667822 69.37001288 283.6747246 73.27114704 283.67973328 77.17233276 C283.68592685 84.79333616 283.67104817 92.41415635 283.64900766 100.03512462 C283.62419617 108.9243581 283.62139794 117.8135591 283.61960389 126.70282207 C283.61573599 142.56958058 283.5933278 158.43625715 283.55981445 174.30297852 C283.5273748 189.67407575 283.50613088 205.04512978 283.49829102 220.41625977 C283.49756278 221.83716741 283.49756278 221.83716741 283.49681983 223.28678026 C283.49489078 227.09527772 283.49297865 230.90377519 283.49110373 234.71227269 C283.48310289 250.28578663 283.46584414 265.85929207 283.44746757 281.43279672 C283.44333026 284.97306675 283.43960735 288.51333685 283.4362452 292.0536077 C283.42730188 301.35617089 283.41544511 310.65871354 283.39467917 319.96125873 C283.38612835 323.80491287 283.37901665 327.64855313 283.37616348 331.49221611 C283.37297242 335.66884042 283.36201251 339.84540932 283.35029602 344.02201843 C283.35048038 345.22223198 283.35066475 346.42244553 283.35085469 347.65902919 C283.2379283 376.39031321 283.2379283 376.39031321 273.53515625 386.76953125 C267.98781504 391.27616523 260.4227862 395.6640625 253.203125 395.6640625 C253.21422806 396.61095947 253.22533112 397.55785645 253.23677063 398.53344727 C253.33834307 407.47826349 253.41318423 416.42296197 253.46218586 425.3682251 C253.48822568 429.96659472 253.52352021 434.56449697 253.58032227 439.16259766 C253.63484366 443.60412152 253.66458774 448.04519722 253.67751122 452.48703003 C253.68671515 454.1774704 253.70468846 455.86788758 253.73177528 457.55813599 C253.97662138 473.47694634 253.97662138 473.47694634 249.67033386 479.43603516 C246.4323185 482.14619559 242.36536166 481.83057396 238.30078125 481.9921875 C232.801708 481.13199727 229.02673872 476.77011102 225.28125 472.97265625 C224.73579529 472.42674332 224.19034058 471.88083038 223.62835693 471.31837463 C222.48309347 470.1701038 221.34024748 469.01941726 220.19970703 467.86645508 C218.45009326 466.09849898 216.69252278 464.33876198 214.93359375 462.58007812 C213.81983798 461.46140973 212.7065404 460.34228494 211.59375 459.22265625 C211.06775208 458.6955455 210.54175415 458.16843475 209.99981689 457.62535095 C206.31923647 453.89628545 206.31923647 453.89628545 205.203125 451.6640625 C204.47609375 452.51677734 204.47609375 452.51677734 203.734375 453.38671875 C199.80545891 457.91252786 195.80978788 462.03202024 191.2265625 465.890625 C188.26980914 468.4820652 185.57758616 471.31477758 182.8671875 474.16015625 C181.203125 475.6640625 181.203125 475.6640625 179.203125 475.6640625 C178.97625 476.2828125 178.749375 476.9015625 178.515625 477.5390625 C176.74813787 480.40070833 175.43298188 480.80276733 172.203125 481.6640625 C167.71980157 481.98429989 164.15622723 481.92297806 160.203125 479.6640625 C158.890625 477.5390625 158.890625 477.5390625 158.203125 475.6640625 C157.543125 475.6640625 156.883125 475.6640625 156.203125 475.6640625 C155.19297009 471.49513695 155.06716269 467.47609907 155.08959961 463.21166992 C155.08945358 462.479422 155.08930756 461.74717407 155.0891571 460.99273682 C155.08985087 458.58497095 155.09761808 456.17728352 155.10546875 453.76953125 C155.10733483 452.09515932 155.10875784 450.42078685 155.10975647 448.74641418 C155.11356665 444.34879029 155.1233841 439.95119966 155.13446045 435.55358887 C155.14470684 431.06242319 155.149261 426.57125213 155.15429688 422.08007812 C155.16500774 413.27472436 155.18206612 404.46939757 155.203125 395.6640625 C154.30951798 395.66774967 153.41591097 395.67143684 152.49522495 395.67523575 C130.73616512 395.76363303 108.97713631 395.82979466 87.21793461 395.87131119 C76.6952729 395.89192272 66.17273118 395.92001644 55.65014648 395.96582031 C46.47699303 396.00573114 37.30392648 396.03150555 28.13068861 396.04041648 C23.27501028 396.04562402 18.41958054 396.05783435 13.56398201 396.08698273 C8.98967805 396.11421889 4.41572409 396.12249095 -0.15865326 396.11649323 C-1.83356442 396.1175898 -3.50848781 396.12549477 -5.18332863 396.1408844 C-21.27820393 396.28146817 -21.27820393 396.28146817 -28.796875 391.6640625 C-29.8075 391.1071875 -30.818125 390.5503125 -31.859375 389.9765625 C-39.12678259 384.25541185 -45.36151672 377.3521551 -46.60314918 367.93420291 C-47.044055 362.76752917 -46.93307873 357.57412213 -46.92385864 352.39273071 C-46.92501171 351.03604381 -46.92660048 349.67935723 -46.92858589 348.32267129 C-46.93275378 344.60473597 -46.93069998 340.88682636 -46.92759967 337.16889095 C-46.92533541 333.15516932 -46.92883033 329.14145208 -46.93157959 325.12773132 C-46.9360255 317.2682769 -46.93506597 309.40883202 -46.93216695 301.54937722 C-46.92990798 295.16041343 -46.92960254 288.77145232 -46.93069077 282.38248825 C-46.930844 281.47294134 -46.93099723 280.56339443 -46.93115511 279.62628549 C-46.93147484 277.7784948 -46.93179905 275.93070412 -46.9321277 274.08291344 C-46.93497912 256.75660803 -46.93170092 239.4303079 -46.92632733 222.10400335 C-46.92186111 207.24348656 -46.92263439 192.38297759 -46.92724609 177.52246094 C-46.9326004 160.2609756 -46.93470288 142.99949491 -46.93163383 125.73800886 C-46.93131529 123.89642867 -46.93100092 122.05484847 -46.93069077 120.21326828 C-46.93053649 119.30720733 -46.93038221 118.40114637 -46.93022326 117.46762902 C-46.92936057 111.08879648 -46.9308157 104.70996688 -46.93317032 98.3311348 C-46.93597808 90.55379318 -46.93520949 82.77646166 -46.92988957 74.9991212 C-46.92726553 71.03248001 -46.9262255 67.06585562 -46.92953873 63.09921455 C-46.93252849 59.46478056 -46.93086435 55.83037889 -46.92556117 52.19594781 C-46.92392311 50.26533662 -46.92717069 48.33472317 -46.93061841 46.40411437 C-46.89871857 32.21857202 -45.06273566 21.20737885 -34.796875 10.6640625 C-33.806875 10.3340625 -32.816875 10.0040625 -31.796875 9.6640625 C-30.91168182 8.7269191 -30.91168182 8.7269191 -30.00860596 7.77084351 C-22.29908122 0.42714728 -10.06431263 -0.08628909 0 0 Z " fill="#040505" transform="translate(150.796875,9.3359375)"/>
  <path d="M0 0 C2.13473017 -0.00216822 4.26892645 -0.02032879 6.40356445 -0.03930664 C25.68334837 -0.11920254 43.45406327 3.10281412 61.10083008 11.18530273 C62.2584082 11.71124023 63.41598633 12.23717773 64.60864258 12.77905273 C65.81558441 13.34941029 67.02133776 13.92229027 68.22583008 14.49780273 C69.3009082 15.00956055 70.37598633 15.52131836 71.48364258 16.04858398 C84.02197891 23.11866534 84.02197891 23.11866534 86.02088284 28.80055523 C86.36107018 31.90812379 86.38693003 34.87975251 86.30337524 38.00500488 C86.31191949 39.17973626 86.32046374 40.35446763 86.32926691 41.56479692 C86.34284849 44.80907747 86.31178768 48.04931949 86.26148629 51.29312277 C86.21816209 54.79675869 86.23292492 58.30021807 86.24050903 61.80404663 C86.24574409 67.86887344 86.21446248 73.93262164 86.15813065 79.99717712 C86.07674 88.76522982 86.05080439 97.53276279 86.03825073 106.30115229 C86.01638283 120.52813067 85.94988458 134.75453458 85.85522461 148.98120117 C85.76338604 162.79822929 85.69262587 176.61510119 85.65014648 190.43237305 C85.64751925 191.28455199 85.64489201 192.13673094 85.64218517 193.01473349 C85.62913447 197.29001181 85.61649746 201.56529124 85.60406613 205.8405714 C85.50045633 241.28922464 85.32437601 276.73721063 85.10083008 312.18530273 C80.81721128 310.07599776 76.71009436 307.68306049 72.58520508 305.28295898 C64.9171721 300.86038733 57.60143504 297.4761006 49.03833008 295.12280273 C48.11947021 294.8660376 47.20061035 294.60927246 46.25390625 294.34472656 C17.05410216 286.33163871 -10.72605764 286.22899938 -39.89916992 294.18530273 C-39.89916992 199.47530273 -39.89916992 104.76530273 -39.89916992 7.18530273 C-30.86380015 2.66761785 -30.86380015 2.66761785 -27.46166992 1.99780273 C-26.80295898 1.85987305 -26.14424805 1.72194336 -25.46557617 1.57983398 C-16.95799811 0.27197191 -8.59581869 -0.00097205 0 0 Z " fill="#FAFBFC" transform="translate(170.899169921875,35.814697265625)"/>
  <path d="M0 0 C0.79531128 0.00115814 1.59062256 0.00231628 2.41003418 0.00350952 C17.78870631 0.04783013 32.02410932 0.86060349 46.5625 6.3125 C46.5625 101.0225 46.5625 195.7325 46.5625 293.3125 C39.90221292 292.20245215 39.90221292 292.20245215 36.609375 291.59375 C35.55556641 291.40232422 35.55556641 291.40232422 34.48046875 291.20703125 C33.05027773 290.94676225 31.620574 290.68379922 30.19140625 290.41796875 C11.01852093 286.9605632 -8.43234167 287.13920235 -27.4375 291.3125 C-29.12746094 291.58513672 -29.12746094 291.58513672 -30.8515625 291.86328125 C-44.70443768 294.24779255 -58.81366816 300.35233906 -70.5 308.12109375 C-72.72442868 309.488938 -75.00768468 310.36715621 -77.4375 311.3125 C-77.7122351 275.15859563 -77.92364978 239.00487446 -78.05028395 202.85014093 C-78.06529223 198.58067493 -78.08082412 194.31121098 -78.09667969 190.04174805 C-78.09982741 189.19178363 -78.10297514 188.34181921 -78.10621825 187.4660983 C-78.15841837 173.70785696 -78.2530234 159.950218 -78.36333355 146.19233388 C-78.47559804 132.07282307 -78.54221468 117.95362748 -78.56656194 103.83368868 C-78.58301894 95.1222327 -78.63496759 86.41247931 -78.7324976 77.70154756 C-78.79598816 71.72605039 -78.81508925 65.75143178 -78.79951653 59.7756219 C-78.7918371 56.32836129 -78.80349974 52.884072 -78.8679657 49.43734169 C-79.21611001 27.63620502 -79.21611001 27.63620502 -74.83921051 22.7562542 C-71.99325003 20.31455713 -68.87024838 18.8104724 -65.4375 17.3125 C-63.85772117 16.27586538 -62.2912962 15.2180318 -60.75 14.125 C-53.79770764 10.08166357 -46.05434954 7.77768046 -38.4375 5.3125 C-37.47070312 4.99152344 -36.50390625 4.67054687 -35.5078125 4.33984375 C-23.74300054 0.59991151 -12.25251842 -0.05493906 0 0 Z " fill="#FBFBFC" transform="translate(359.4375,35.6875)"/>
  <path d="M0 0 C1.95776367 0.00290039 1.95776367 0.00290039 3.95507812 0.00585938 C4.95655884 0.01516479 4.95655884 0.01516479 5.97827148 0.0246582 C8.02535372 0.04302098 10.07198419 0.0451666 12.11914062 0.04492188 C17.57250857 0.06923109 22.46464271 0.15699104 27.83203125 1.23046875 C27.83203125 33.24046875 27.83203125 65.25046875 27.83203125 98.23046875 C19.95703125 91.48046875 19.95703125 91.48046875 17.0859375 88.58203125 C16.47685547 87.96972656 15.86777344 87.35742188 15.24023438 86.7265625 C14.63115234 86.10910156 14.02207031 85.49164063 13.39453125 84.85546875 C12.75837891 84.21480469 12.12222656 83.57414062 11.46679688 82.9140625 C9.91952793 81.35515996 8.37466633 79.79395459 6.83203125 78.23046875 C3.79436388 79.68294181 1.69150539 81.12450775 -0.66796875 83.54296875 C-1.27640625 84.16558594 -1.88484375 84.78820312 -2.51171875 85.4296875 C-4.29317664 87.31094098 -4.29317664 87.31094098 -6.16796875 89.85546875 C-8.16796875 92.23046875 -8.16796875 92.23046875 -15.16796875 97.23046875 C-15.16796875 65.88046875 -15.16796875 34.53046875 -15.16796875 2.23046875 C-9.34166825 0.77389362 -5.71117312 -0.01983451 0 0 Z " fill="#F7F9F9" transform="translate(349.16796875,349.76953125)"/>
  <path d="M0 0 C2.96877428 2.42377736 5.78160463 4.97815362 8.39160156 7.78466797 C8.39160156 8.11466797 8.39160156 8.44466797 8.39160156 8.78466797 C-6.36832736 8.94831068 -21.12813597 9.07168758 -35.88878822 9.14735317 C-42.74273661 9.18342279 -49.59612082 9.23258217 -56.44970703 9.31274414 C-63.06325382 9.39006154 -69.67636842 9.43065351 -76.2903862 9.44880867 C-78.81424564 9.46174734 -81.33807283 9.48701388 -83.86168289 9.52477837 C-87.39596222 9.57556571 -90.92781709 9.58259252 -94.46240234 9.5793457 C-96.02902115 9.6170961 -96.02902115 9.6170961 -97.62728882 9.65560913 C-104.5546415 9.58670769 -104.5546415 9.58670769 -107.60155869 7.26762581 C-110.54934435 3.94900113 -112.4361403 1.25074384 -112.29589844 -3.34033203 C-112.05184 -6.84204003 -111.68489211 -8.10182529 -109.67089844 -11.09033203 C-81.3013155 -30.77534876 -26.4644993 -19.9970063 0 0 Z " fill="#F8FAFB" transform="translate(241.6083984375,369.21533203125)"/>
  <path d="M0 0 C0.763125 0.20625 1.52625 0.4125 2.3125 0.625 C-0.6875 2.625 -0.6875 2.625 -4.6875 2.625 C-4.67861755 3.57855881 -4.66973511 4.53211761 -4.6605835 5.51457214 C-4.57946829 14.50451157 -4.51952057 23.49437666 -4.48025131 32.48459911 C-4.45938373 37.10650583 -4.43108136 41.72811693 -4.38574219 46.34985352 C-4.34225465 50.81079829 -4.31835665 55.27145886 -4.30799103 59.73259926 C-4.30060486 61.43386623 -4.28618124 63.13511779 -4.26457977 64.83626366 C-4.2355063 67.22085454 -4.23154552 69.60427383 -4.23339844 71.98901367 C-4.21901733 72.69104416 -4.20463623 73.39307465 -4.18981934 74.11637878 C-4.22984442 78.88244251 -5.38052791 81.23226448 -8.6875 84.625 C-8.730221 82.95888095 -8.72813832 81.29117115 -8.6875 79.625 C-8.1925 79.13 -8.1925 79.13 -7.6875 78.625 C-7.56885871 76.5564734 -7.52006857 74.48391851 -7.49804688 72.41210938 C-7.48975357 71.76317719 -7.48146027 71.114245 -7.47291565 70.44564819 C-7.45547377 69.03080221 -7.44031839 67.61592666 -7.42713928 66.20103455 C-7.40612392 63.95527631 -7.37909205 61.7096625 -7.35046387 59.46398926 C-7.29066018 54.68438227 -7.23868459 49.90470593 -7.1875 45.125 C-7.12808898 39.61271462 -7.06542387 34.10049739 -6.99562073 28.58833313 C-6.96927745 26.38780909 -6.94831175 24.18727762 -6.9276123 21.98669434 C-6.7688956 7.50489152 -6.7688956 7.50489152 -5.6875 1.625 C-2.6875 -0.375 -2.6875 -0.375 0 0 Z " fill="#515A66" transform="translate(408.6875,402.375)"/>
  <path d="M0 0 C0 4.29 0 8.58 0 13 C-5.61 13 -11.22 13 -17 13 C-6.6 0 -6.6 0 0 0 Z " fill="#F6F8F9" transform="translate(307,365)"/>
  <path d="M0 0 C0.99 1.485 0.99 1.485 2 3 C1.67 3.99 1.34 4.98 1 6 C-36.29 6 -73.58 6 -112 6 C-112 5.67 -112 5.34 -112 5 C-57.055 4.505 -57.055 4.505 -1 4 C-1.495 3.01 -1.495 3.01 -2 2 C-1.34 2 -0.68 2 0 2 C0 1.34 0 0.68 0 0 Z " fill="#4A4A4A" transform="translate(250,373)"/>
  <path d="M0 0 C3 1 3 1 5 4 C5.37109375 6.33984375 5.37109375 6.33984375 5.4375 8.9375 C5.47746094 9.79214844 5.51742188 10.64679688 5.55859375 11.52734375 C5 14 5 14 0 18 C0 12.06 0 6.12 0 0 Z " fill="#D9DCDF" transform="translate(403,358)"/>
  <path d="M0 0 C0 3.38877956 -0.93396795 5.80190384 -2 9 C-2 9.99 -2 10.98 -2 12 C-2.639375 12.61875 -3.27875 13.2375 -3.9375 13.875 C-6.27990815 16.28839022 -6.63515416 17.7163874 -7 21 C-7.33 21 -7.66 21 -8 21 C-8.86855457 13.32776795 -6.14176547 8.37359764 -2 2 C-1.34 1.34 -0.68 0.68 0 0 Z " fill="#2C3741" transform="translate(113,24)"/>
  <path d="M0 0 C0.33 0.99 0.66 1.98 1 3 C-0.24203695 4.46512126 -1.49397056 5.92185645 -2.75 7.375 C-3.44609375 8.18710937 -4.1421875 8.99921875 -4.859375 9.8359375 C-6.85949643 11.85795807 -8.39531129 12.93231229 -11 14 C-10.52517262 9.72655357 -8.00795363 7.86471775 -5 5 C-3.97186389 3.68824014 -2.95915568 2.3630107 -2 1 C-1.34 1.33 -0.68 1.66 0 2 C0 1.34 0 0.68 0 0 Z " fill="#192C33" transform="translate(429,386)"/>
  <path d="M0 0 C0.66 0.99 1.32 1.98 2 3 C1.67 3.99 1.34 4.98 1 6 C-9.56 6 -20.12 6 -31 6 C-31 5.67 -31 5.34 -31 5 C-16.15 4.505 -16.15 4.505 -1 4 C-1.33 3.34 -1.66 2.68 -2 2 C-1.34 2 -0.68 2 0 2 C0 1.34 0 0.68 0 0 Z " fill="#353637" transform="translate(250,373)"/>
  <path d="M0 0 C0 0.66 0 1.32 0 2 C-0.763125 2.144375 -1.52625 2.28875 -2.3125 2.4375 C-5.08172908 2.9632594 -5.08172908 2.9632594 -8 4 C-8 4.99 -8 5.98 -8 7 C-14.625 9 -14.625 9 -18 9 C-4.4 -2.2 -4.4 -2.2 0 0 Z " fill="#5B6270" transform="translate(295,24)"/>
  <path d="M0 0 C0.66 0 1.32 0 2 0 C2.45375 0.639375 2.9075 1.27875 3.375 1.9375 C4.78365385 4.17450298 4.78365385 4.17450298 7 4.4375 C9 5 9 5 10.8125 7.375 C12 10 12 10 11 13 C9.34810857 11.40207236 7.7036661 9.79644124 6.0625 8.1875 C5.14597656 7.29417969 4.22945313 6.40085937 3.28515625 5.48046875 C1 3 1 3 0 0 Z " fill="#122127" transform="translate(356,460)"/>
  <path d="M0 0 C3.31012244 3.31012244 3.50351065 4.53159589 4 9 C2.68 9.99 1.36 10.98 0 12 C0 8.04 0 4.08 0 0 Z " fill="#EFF1F4" transform="translate(403,364)"/>
  <path d="M0 0 C0.66 0.33 1.32 0.66 2 1 C0.375 3.9375 0.375 3.9375 -2 7 C-5.25 7.875 -5.25 7.875 -8 8 C-7.67 7.01 -7.34 6.02 -7 5 C-6.01 4.67 -5.02 4.34 -4 4 C-2.62804426 2.70644173 -1.28817344 1.37701298 0 0 Z " fill="#4A565B" transform="translate(123,15)"/>
  <path d="M0 0 C0.763125 0.20625 1.52625 0.4125 2.3125 0.625 C-0.6875 2.625 -0.6875 2.625 -4.6875 2.625 C-4.6875 5.925 -4.6875 9.225 -4.6875 12.625 C-5.0175 12.625 -5.3475 12.625 -5.6875 12.625 C-5.76836147 10.83406809 -5.82662702 9.04210372 -5.875 7.25 C-5.90980469 6.25226563 -5.94460938 5.25453125 -5.98046875 4.2265625 C-5.83544922 2.93878906 -5.83544922 2.93878906 -5.6875 1.625 C-2.6875 -0.375 -2.6875 -0.375 0 0 Z " fill="#2A3540" transform="translate(408.6875,402.375)"/>
  <path d="M0 0 C0.99 0.495 0.99 0.495 2 1 C2 1.66 2 2.32 2 3 C2.66 3 3.32 3 4 3 C4 4.98 4 6.96 4 9 C3.34 8.67 2.68 8.34 2 8 C2 7.34 2 6.68 2 6 C1.34 6 0.68 6 0 6 C0 4.02 0 2.04 0 0 Z " fill="#151C24" transform="translate(307,479)"/>
  <path d="M0 0 C0.33 0.99 0.66 1.98 1 3 C-0.40445835 5.2636564 -2.1967913 7.0208685 -4 9 C-4.66 8.01 -5.32 7.02 -6 6 C-5.525625 5.54625 -5.05125 5.0925 -4.5625 4.625 C-2.90972192 3.06741796 -2.90972192 3.06741796 -2 1 C-1.34 1.33 -0.68 1.66 0 2 C0 1.34 0 0.68 0 0 Z " fill="#414754" transform="translate(429,386)"/>
  <path d="M0 0 C0.99 0.33 1.98 0.66 3 1 C2.34 2.32 1.68 3.64 1 5 C-0.65 4.67 -2.3 4.34 -4 4 C-2.68 2.68 -1.36 1.36 0 0 Z " fill="#E1E3E4" transform="translate(302,366)"/>
  <path d="M0 0 C1.0828125 0.37125 1.0828125 0.37125 2.1875 0.75 C-1.39649147 3.13932765 -3.54445001 3.75 -7.8125 3.75 C-3.50480769 -0.31153846 -3.50480769 -0.31153846 0 0 Z " fill="#464A52" transform="translate(284.8125,29.25)"/>
</svg>
